<svg width="88.000000" height="88.000000" viewBox="0 0 88 88" fill="none" xmlns="http://www.w3.org/2000/svg" xmlns:xlink="http://www.w3.org/1999/xlink">
	<desc>
			Created with Pixso.
	</desc>
	<defs/>
	<circle id="Mask" cx="44.000000" cy="44.000000" r="44.000000" fill="#36536B" fill-opacity="1.000000"/>
	<circle id="Mask" cx="44.000000" cy="44.000000" r="44.000000" stroke="#979797" stroke-opacity="0" stroke-width="0.000000"/>
	<mask id="mask0_3371" mask-type="alpha" maskUnits="userSpaceOnUse" x="0.000000" y="0.000000" width="88.000000" height="88.000000">
		<circle id="Mask" cx="44.000000" cy="44.000000" r="44.000000" fill="#36536B" fill-opacity="1.000000"/>
		<circle id="Mask" cx="44.000000" cy="44.000000" r="44.000000" stroke="#979797" stroke-opacity="0" stroke-width="0.000000"/>
	</mask>
	<path id="Combined Shape" d="M32.3254 42.9624C33.1104 42.9624 33.8208 42.6475 34.3457 42.1421L37.2256 43.5815C37.2112 43.6992 37.1898 43.8145 37.1898 43.9355C37.1898 45.5449 38.4991 46.854 40.1085 46.854C41.7178 46.854 43.0271 45.5449 43.0271 43.9355C43.0271 43.4863 42.9166 43.0654 42.7345 42.6851L46.6412 38.7783C47.0217 38.9604 47.4424 39.0708 47.8915 39.0708C49.5009 39.0708 50.8102 37.7617 50.8102 36.1523C50.8102 35.8496 50.7506 35.563 50.6644 35.2881L54.059 32.7427C54.5221 33.0522 55.0771 33.2339 55.6746 33.2339C57.2838 33.2339 58.5931 31.9243 58.5931 30.3149C58.5931 28.7061 57.2838 27.3965 55.6746 27.3965C54.0652 27.3965 52.7559 28.7061 52.7559 30.3149C52.7559 30.6182 52.8154 30.9048 52.9016 31.1797L49.5072 33.7246C49.0441 33.4155 48.4889 33.2339 47.8915 33.2339C46.2822 33.2339 44.9729 34.543 44.9729 36.1523C44.9729 36.6016 45.0834 37.022 45.2655 37.4028L41.3588 41.3096C40.9783 41.1274 40.5577 41.0166 40.1085 41.0166C39.3236 41.0166 38.6132 41.3315 38.0883 41.8374L35.2084 40.3975C35.2228 40.2803 35.2441 40.165 35.2441 40.0439C35.2441 38.4346 33.9348 37.1255 32.3254 37.1255C30.7162 37.1255 29.4069 38.4346 29.4069 40.0439C29.4069 41.6533 30.7162 42.9624 32.3254 42.9624ZM58.5931 58.6582L59.6309 58.6582C60.1686 58.6582 60.6038 59.0938 60.6038 59.6313C60.6038 60.1689 60.1686 60.604 59.6309 60.604L28.3691 60.604C27.8315 60.604 27.3962 60.1689 27.3962 59.6313C27.3962 59.0938 27.8315 58.6582 28.3691 58.6582L29.4069 58.6582L29.4069 47.8271C29.4069 47.2891 29.8422 46.854 30.3798 46.854L34.2712 46.854C34.8088 46.854 35.2441 47.2891 35.2441 47.8271L35.2441 58.6582L37.1898 58.6582L37.1898 51.7183C37.1898 51.1807 37.6251 50.7456 38.1627 50.7456L42.0542 50.7456C42.5919 50.7456 43.0271 51.1807 43.0271 51.7183L43.0271 58.6582L44.9729 58.6582L44.9729 43.9355C44.9729 43.3979 45.4082 42.9624 45.9458 42.9624L49.8373 42.9624C50.3749 42.9624 50.8102 43.3979 50.8102 43.9355L50.8102 58.6582L52.7559 58.6582L52.7559 38.0981C52.7559 37.5605 53.1912 37.1255 53.7288 37.1255L57.6202 37.1255C58.158 37.1255 58.5931 37.5605 58.5931 38.0981L58.5931 58.6582Z" clip-rule="evenodd" fill="#FFFFFF" fill-opacity="1.000000" fill-rule="evenodd"/>
</svg>
