<svg width="88.000000" height="88.000000" viewBox="0 0 88 88" fill="none" xmlns="http://www.w3.org/2000/svg" xmlns:xlink="http://www.w3.org/1999/xlink">
	<desc>
			Created with Pixso.
	</desc>
	<defs/>
	<circle id="Mask" cx="44.000000" cy="44.000000" r="44.000000" fill="#36536B" fill-opacity="1.000000"/>
	<circle id="Mask" cx="44.000000" cy="44.000000" r="44.000000" stroke="#979797" stroke-opacity="0" stroke-width="0.000000"/>
	<mask id="mask0_3353" mask-type="alpha" maskUnits="userSpaceOnUse" x="0.000000" y="0.000000" width="88.000000" height="88.000000">
		<circle id="Mask" cx="44.000000" cy="44.000000" r="44.000000" fill="#36536B" fill-opacity="1.000000"/>
		<circle id="Mask" cx="44.000000" cy="44.000000" r="44.000000" stroke="#979797" stroke-opacity="0" stroke-width="0.000000"/>
	</mask>
	<path id="Combined Shape" d="M49.806 26.0508L47.23 33.5591L32.5581 33.5591L29.9817 26.0508L34.2513 23.2451L37.0726 25.0991L39.894 23.2451L42.7153 25.0991L45.5367 23.2451L49.806 26.0508ZM33.0424 35.9771L46.7457 35.9771L46.7457 38.3955L33.0424 38.3955L33.0424 35.9771ZM51.7638 50.0034L45.6173 50.0034L45.6173 57.2583L43.199 57.2583L43.199 64.3823C42.6415 64.4683 42.0743 64.5132 41.502 64.5132L38.2861 64.5132C34.5297 64.5132 31.09 62.6167 29.0847 59.4404C27.9635 57.665 27.3962 55.6562 27.3962 53.6377C27.3962 52.0459 27.749 50.4478 28.4611 48.9521L32.3364 40.814L47.4517 40.814L51.3271 48.9521C51.4918 49.2979 51.637 49.6489 51.7638 50.0034ZM42.2885 54.6279C42.5372 54.4302 42.7378 54.1768 42.8901 53.8672C43.0422 53.5581 43.1184 53.1831 43.1184 52.7432C43.1184 52.3701 43.0627 52.0537 42.9513 51.792C42.8401 51.5317 42.6802 51.3096 42.4724 51.1265C42.2645 50.9438 42.0139 50.7856 41.7205 50.6514C41.4271 50.5171 41.0986 50.394 40.735 50.2822C40.6532 50.2598 40.5751 50.2358 40.5011 50.2095C40.4268 50.1836 40.3563 50.1631 40.2892 50.1479L40.2892 49.1411C40.4973 49.1787 40.7032 49.2324 40.9076 49.3032C41.1116 49.374 41.2954 49.4507 41.4589 49.5327C41.6519 49.6221 41.8301 49.7192 41.9935 49.8237L42.9292 48.0225C42.7731 47.9482 42.6024 47.8682 42.4166 47.7822C42.2312 47.6963 42.0325 47.6143 41.8209 47.5356C41.609 47.4575 41.3883 47.3887 41.1582 47.3291C40.9277 47.2695 40.6903 47.2246 40.4453 47.1948L40.4453 46.0537L39.5543 46.0537L39.5543 47.1836C39.2052 47.2212 38.8768 47.3066 38.5686 47.4409C38.2604 47.5752 37.9911 47.7539 37.761 47.978C37.5309 48.2012 37.3491 48.4683 37.2153 48.7773C37.0819 49.0869 37.0148 49.4434 37.0148 49.8457C37.0148 50.1367 37.0538 50.394 37.132 50.6177C37.21 50.8413 37.3306 51.041 37.494 51.2158C37.6571 51.3916 37.8652 51.5479 38.1177 51.686C38.3699 51.8242 38.6705 51.9526 39.0198 52.0718C39.2499 52.1538 39.4801 52.2246 39.7102 52.2842L39.7102 53.2686C39.4429 53.2314 39.1813 53.1665 38.9249 53.0732C38.6687 52.98 38.4442 52.8848 38.2512 52.7876C38.021 52.6758 37.8057 52.5566 37.6051 52.4297L36.6697 54.3423C37.0706 54.5815 37.5233 54.7788 38.0283 54.9355C38.533 55.0923 39.0417 55.1929 39.5543 55.2378L39.5543 56.6133L40.4451 56.6133L40.4451 55.2598C40.7866 55.2378 41.1173 55.1758 41.4365 55.0757C41.7557 54.9746 42.0398 54.8257 42.2885 54.6279ZM39.3761 49.7617C39.3018 49.6909 39.2646 49.5996 39.2646 49.4873C39.2646 49.2715 39.4132 49.1445 39.7102 49.1074L39.7102 49.9575C39.5615 49.8979 39.4504 49.8325 39.3761 49.7617ZM48.0356 52.4214L60.5298 52.4214L60.5298 57.2578L48.0356 57.2578L48.0356 52.4214ZM40.2892 52.4741C40.4377 52.5342 40.5565 52.603 40.6455 52.6812C40.735 52.7593 40.7794 52.8506 40.7794 52.9556C40.7794 53.0522 40.7422 53.1304 40.668 53.1904C40.5936 53.2495 40.4677 53.2871 40.2892 53.3018L40.2892 52.4741ZM45.6173 59.6763L58.1117 59.6763L58.1117 64.5127L45.6173 64.5127L45.6173 59.6763Z" clip-rule="evenodd" fill="#EDF3F8" fill-opacity="1.000000" fill-rule="evenodd"/>
</svg>
