<svg width="88.000000" height="88.000000" viewBox="0 0 88 88" fill="none" xmlns="http://www.w3.org/2000/svg" xmlns:xlink="http://www.w3.org/1999/xlink">
	<desc>
			Created with Pixso.
	</desc>
	<defs/>
	<circle id="Mask" cx="44.000000" cy="44.000000" r="44.000000" fill="#36536B" fill-opacity="1.000000"/>
	<circle id="Mask" cx="44.000000" cy="44.000000" r="44.000000" stroke="#979797" stroke-opacity="0" stroke-width="0.000000"/>
	<mask id="mask0_3382" mask-type="alpha" maskUnits="userSpaceOnUse" x="0.000000" y="0.000000" width="88.000000" height="88.000000">
		<circle id="Mask" cx="44.000000" cy="44.000000" r="44.000000" fill="#36536B" fill-opacity="1.000000"/>
		<circle id="Mask" cx="44.000000" cy="44.000000" r="44.000000" stroke="#979797" stroke-opacity="0" stroke-width="0.000000"/>
	</mask>
	<path id="Combined Shape" d="M60.5607 37.6821L60.5607 37.9634C60.5607 38.3931 60.2122 38.7417 59.7823 38.7417L28.1746 38.7417C27.7448 38.7417 27.3962 38.3931 27.3962 37.9634L27.3962 37.6821C27.3962 35.2104 29.3999 33.207 31.8715 33.207L56.0853 33.207C58.557 33.207 60.5607 35.2104 60.5607 37.6821ZM27.3962 50.8267L27.3962 42.2437C27.3962 41.814 27.7448 41.4653 28.1746 41.4653L59.7823 41.4653C60.2122 41.4653 60.5605 41.814 60.5605 42.2437L60.5605 50.8267C60.5605 53.2983 58.557 55.3022 56.0853 55.3022L31.8715 55.3022C29.3999 55.3022 27.3962 53.2983 27.3962 50.8267ZM33.6011 47.6919L35.6765 47.6919C36.4287 47.6919 37.0386 47.082 37.0386 46.3301C37.0386 45.5776 36.4287 44.9678 35.6765 44.9678L33.6011 44.9678C32.8489 44.9678 32.239 45.5776 32.239 46.3301C32.239 47.082 32.8489 47.6919 33.6011 47.6919Z" clip-rule="evenodd" fill="#FFFFFF" fill-opacity="1.000000" fill-rule="evenodd"/>
</svg>
